<svg width="788" height="722" viewBox="0 0 788 722" fill="none" xmlns="http://www.w3.org/2000/svg">
<g filter="url(#filter0_d_2_871)">
<rect x="4" y="4" width="780" height="714" fill="white"/>
</g>
<line x1="4" y1="103.568" x2="784" y2="103.568" stroke="#D9DCDE"/>
<circle cx="722" cy="62" r="29" fill="#F2F3F4"/>
<rect x="23" y="55" width="428" height="31" fill="#F2F3F4"/>
<rect x="23" y="27" width="64" height="16" fill="#F2F3F4"/>
<rect x="23" y="662" width="199" height="16" fill="#F2F3F4"/>
<rect x="573" y="671" width="149" height="23" fill="#F2F3F4"/>
<rect width="27" height="23" transform="matrix(-1 0 0 1 764 671)" fill="#F2F3F4"/>
<rect x="23" y="684" width="31" height="16" fill="#F2F3F4"/>
<rect x="23" y="128" width="428" height="31" fill="#F2F3F4"/>
<rect x="23" y="179" width="739" height="91" rx="3" fill="#F2F3F4"/>
<rect x="23" y="280" width="739" height="109" rx="3" fill="#F2F3F4"/>
<rect x="23" y="399" width="739" height="144" rx="3" fill="#F2F3F4"/>
<line x1="27.5" y1="643.5" x2="761.5" y2="643.5" stroke="#F2F3F4" stroke-width="5" stroke-linecap="round"/>
<rect x="614" y="569" width="150" height="50" fill="#F2F3F4"/>
<rect x="23" y="569" width="150" height="50" fill="#F2F3F4"/>
<defs>
<filter id="filter0_d_2_871" x="0" y="0" width="788" height="722" filterUnits="userSpaceOnUse" color-interpolation-filters="sRGB">
<feFlood flood-opacity="0" result="BackgroundImageFix"/>
<feColorMatrix in="SourceAlpha" type="matrix" values="0 0 0 0 0 0 0 0 0 0 0 0 0 0 0 0 0 0 127 0" result="hardAlpha"/>
<feOffset/>
<feGaussianBlur stdDeviation="2"/>
<feColorMatrix type="matrix" values="0 0 0 0 0 0 0 0 0 0 0 0 0 0 0 0 0 0 0.25 0"/>
<feBlend mode="normal" in2="BackgroundImageFix" result="effect1_dropShadow_2_871"/>
<feBlend mode="normal" in="SourceGraphic" in2="effect1_dropShadow_2_871" result="shape"/>
</filter>
</defs>
</svg>
