<svg width="1181" height="1130" viewBox="0 0 1181 1130" fill="none" xmlns="http://www.w3.org/2000/svg">
<rect x="23" y="28" width="428" height="31" fill="#F2F3F4"/>
<rect x="406" y="131" width="428" height="31" fill="#F2F3F4"/>
<rect x="23" width="64" height="16" fill="#F2F3F4"/>
<rect x="23" y="127" width="146" height="16" fill="#F2F3F4"/>
<rect x="23" y="80" width="507" height="16" fill="#F2F3F4"/>
<line y1="114.5" x2="1181" y2="114.5" stroke="#ACB1B6" stroke-opacity="0.33"/>
<line y1="334.5" x2="380" y2="334.5" stroke="#D9DCDE"/>
<line y1="244.5" x2="380" y2="244.5" stroke="#D9DCDE"/>
<line y1="154.5" x2="380" y2="154.5" stroke="#D9DCDE"/>
<line y1="424.5" x2="380" y2="424.5" stroke="#D9DCDE"/>
<line y1="514.5" x2="380" y2="514.5" stroke="#D9DCDE"/>
<line y1="603.5" x2="380" y2="603.5" stroke="#D9DCDE"/>
<line x1="380" y1="177.5" x2="1180" y2="177.5" stroke="#D9DCDE"/>
<line x1="380.5" y1="115" x2="380.5" y2="1130" stroke="#D9DCDE"/>
<circle cx="52" cy="197" r="29" fill="#F2F3F4"/>
<rect x="110" y="189" width="170" height="20" fill="#F2F3F4"/>
<line x1="380" y1="245.5" x2="1180" y2="245.5" stroke="#D9DCDE"/>
<rect x="793" y="198" width="370" height="28" fill="#F2F3F4"/>
<line x1="918" y1="198" x2="918" y2="226" stroke="white" stroke-width="4"/>
<line x1="1042" y1="198" x2="1042" y2="226" stroke="white" stroke-width="4"/>
<rect x="406" y="198" width="235" height="27" fill="#F2F3F4"/>
<line x1="380" y1="313.5" x2="1180" y2="313.5" stroke="#D9DCDE"/>
<rect x="793" y="266" width="370" height="28" fill="#F2F3F4"/>
<line x1="918" y1="266" x2="918" y2="294" stroke="white" stroke-width="4"/>
<line x1="1042" y1="266" x2="1042" y2="294" stroke="white" stroke-width="4"/>
<rect x="406" y="266" width="235" height="27" fill="#F2F3F4"/>
<line x1="380" y1="381.5" x2="1180" y2="381.5" stroke="#D9DCDE"/>
<rect x="793" y="334" width="370" height="28" fill="#F2F3F4"/>
<line x1="918" y1="334" x2="918" y2="362" stroke="white" stroke-width="4"/>
<line x1="1042" y1="334" x2="1042" y2="362" stroke="white" stroke-width="4"/>
<rect x="406" y="334" width="235" height="27" fill="#F2F3F4"/>
<line x1="380" y1="449.5" x2="1180" y2="449.5" stroke="#D9DCDE"/>
<rect x="793" y="402" width="370" height="28" fill="#F2F3F4"/>
<line x1="918" y1="402" x2="918" y2="430" stroke="white" stroke-width="4"/>
<line x1="1042" y1="402" x2="1042" y2="430" stroke="white" stroke-width="4"/>
<rect x="406" y="402" width="235" height="27" fill="#F2F3F4"/>
<line x1="380" y1="517.5" x2="1180" y2="517.5" stroke="#D9DCDE"/>
<rect x="793" y="470" width="370" height="28" fill="#F2F3F4"/>
<line x1="918" y1="470" x2="918" y2="498" stroke="white" stroke-width="4"/>
<line x1="1042" y1="470" x2="1042" y2="498" stroke="white" stroke-width="4"/>
<rect x="406" y="470" width="235" height="27" fill="#F2F3F4"/>
<line x1="380" y1="585.5" x2="1180" y2="585.5" stroke="#D9DCDE"/>
<rect x="793" y="538" width="370" height="28" fill="#F2F3F4"/>
<line x1="918" y1="538" x2="918" y2="566" stroke="white" stroke-width="4"/>
<line x1="1042" y1="538" x2="1042" y2="566" stroke="white" stroke-width="4"/>
<rect x="406" y="538" width="235" height="27" fill="#F2F3F4"/>
<line x1="380" y1="653.5" x2="1180" y2="653.5" stroke="#D9DCDE"/>
<rect x="793" y="606" width="370" height="28" fill="#F2F3F4"/>
<line x1="918" y1="606" x2="918" y2="634" stroke="white" stroke-width="4"/>
<line x1="1042" y1="606" x2="1042" y2="634" stroke="white" stroke-width="4"/>
<rect x="406" y="606" width="235" height="27" fill="#F2F3F4"/>
<line x1="380" y1="721.5" x2="1180" y2="721.5" stroke="#D9DCDE"/>
<rect x="793" y="674" width="370" height="28" fill="#F2F3F4"/>
<line x1="918" y1="674" x2="918" y2="702" stroke="white" stroke-width="4"/>
<line x1="1042" y1="674" x2="1042" y2="702" stroke="white" stroke-width="4"/>
<rect x="406" y="674" width="235" height="27" fill="#F2F3F4"/>
<line x1="380" y1="789.5" x2="1180" y2="789.5" stroke="#D9DCDE"/>
<rect x="793" y="742" width="370" height="28" fill="#F2F3F4"/>
<line x1="918" y1="742" x2="918" y2="770" stroke="white" stroke-width="4"/>
<line x1="1042" y1="742" x2="1042" y2="770" stroke="white" stroke-width="4"/>
<rect x="406" y="742" width="235" height="27" fill="#F2F3F4"/>
<line x1="380" y1="857.5" x2="1180" y2="857.5" stroke="#D9DCDE"/>
<rect x="793" y="810" width="370" height="28" fill="#F2F3F4"/>
<line x1="918" y1="810" x2="918" y2="838" stroke="white" stroke-width="4"/>
<line x1="1042" y1="810" x2="1042" y2="838" stroke="white" stroke-width="4"/>
<rect x="406" y="810" width="235" height="27" fill="#F2F3F4"/>
<line x1="380" y1="925.5" x2="1180" y2="925.5" stroke="#D9DCDE"/>
<rect x="793" y="878" width="370" height="28" fill="#F2F3F4"/>
<line x1="918" y1="878" x2="918" y2="906" stroke="white" stroke-width="4"/>
<line x1="1042" y1="878" x2="1042" y2="906" stroke="white" stroke-width="4"/>
<rect x="406" y="878" width="235" height="27" fill="#F2F3F4"/>
<line x1="380" y1="993.5" x2="1180" y2="993.5" stroke="#D9DCDE"/>
<rect x="793" y="946" width="370" height="28" fill="#F2F3F4"/>
<line x1="918" y1="946" x2="918" y2="974" stroke="white" stroke-width="4"/>
<line x1="1042" y1="946" x2="1042" y2="974" stroke="white" stroke-width="4"/>
<rect x="406" y="946" width="235" height="27" fill="#F2F3F4"/>
<line x1="380" y1="1061.5" x2="1180" y2="1061.5" stroke="#D9DCDE"/>
<rect x="793" y="1014" width="370" height="28" fill="#F2F3F4"/>
<line x1="918" y1="1014" x2="918" y2="1042" stroke="white" stroke-width="4"/>
<line x1="1042" y1="1014" x2="1042" y2="1042" stroke="white" stroke-width="4"/>
<rect x="406" y="1014" width="235" height="27" fill="#F2F3F4"/>
<rect x="793" y="1082" width="370" height="28" fill="#F2F3F4"/>
<line x1="918" y1="1082" x2="918" y2="1110" stroke="white" stroke-width="4"/>
<line x1="1042" y1="1082" x2="1042" y2="1110" stroke="white" stroke-width="4"/>
<rect x="406" y="1082" width="235" height="27" fill="#F2F3F4"/>
<circle cx="52" cy="288" r="29" fill="#F2F3F4"/>
<rect x="110" y="280" width="170" height="20" fill="#F2F3F4"/>
<circle cx="52" cy="379" r="29" fill="#F2F3F4"/>
<rect x="110" y="371" width="170" height="20" fill="#F2F3F4"/>
<circle cx="52" cy="468" r="29" fill="#F2F3F4"/>
<rect x="110" y="460" width="170" height="20" fill="#F2F3F4"/>
<circle cx="52" cy="559" r="29" fill="#F2F3F4"/>
<rect x="110" y="551" width="170" height="20" fill="#F2F3F4"/>
</svg>
